<svg width="35" height="35" viewBox="0 0 35 35" fill="none" xmlns="http://www.w3.org/2000/svg">
<rect width="35" height="35" fill="white"/>
<path d="M26.1484 14.0548C24.3391 14.0548 22.8672 15.5267 22.8672 17.336C22.8672 19.1453 24.3391 20.6172 26.1484 20.6172H30.7968C30.8154 20.6172 30.8335 20.6154 30.8518 20.6145C30.8699 20.6153 30.8878 20.6172 30.9062 20.6172C31.5103 20.6172 31.9999 20.1275 31.9999 19.5234V10.9375C31.9999 9.48141 31.2843 8.18997 30.1868 7.39432L26.4659 1.29012C26.3142 1.04118 26.0693 0.863116 25.7857 0.795522C25.5021 0.727819 25.2033 0.776218 24.9555 0.929889L22.2115 2.63154L20.974 0.537343C20.8252 0.285562 20.5818 0.103891 20.2982 0.0327973C20.0145 -0.0382963 19.7141 0.00725825 19.4643 0.15907L8.92783 6.56253H7.28124C6.68728 6.56253 6.20237 6.08664 6.18782 5.49612C6.20237 4.90561 6.68728 4.42972 7.28124 4.42972H9.30468C9.90875 4.42972 10.3984 3.94005 10.3984 3.33597C10.3984 2.73189 9.90875 2.24222 9.30468 2.24222H7.28124C5.7337 2.24222 4.43307 3.31924 4.08914 4.76304C4.03194 4.89571 4 5.04173 4 5.19534V5.46878V5.52347V23.625C4 26.0374 5.96262 28 8.37499 28H27.625C29.5111 28 31.1793 26.7984 31.7758 25.0102C31.967 24.4372 31.6574 23.8177 31.0844 23.6265C30.5114 23.4354 29.8919 23.7449 29.7007 24.3179C29.4025 25.2119 28.5684 25.8125 27.625 25.8125H8.37499C7.16881 25.8125 6.1875 24.8312 6.1875 23.625V8.56239C6.52978 8.6838 6.89789 8.75002 7.28124 8.75002H27.625C28.8311 8.75002 29.8125 9.73133 29.8125 10.9375V14.0548H26.1484ZM29.8125 18.4297H26.1484C25.5453 18.4297 25.0546 17.9391 25.0546 17.3359C25.0546 16.7329 25.5453 16.2422 26.1484 16.2422H29.8125V18.4297ZM13.1398 6.56258L19.6541 2.6036L20.8188 4.57459C20.8411 4.62845 20.8669 4.68155 20.8986 4.73274C20.9224 4.77108 20.9487 4.80679 20.9762 4.84113L21.9934 6.56258H13.1398V6.56258ZM24.5343 6.56253L23.3246 4.51525L25.1717 3.36982L27.1179 6.56253H24.5343Z" fill="#3A3D49"/>
</svg>
