<svg width="35" height="35" viewBox="0 0 35 35" fill="none" xmlns="http://www.w3.org/2000/svg">
<rect width="35" height="35" fill="white"/>
<path fill-rule="evenodd" clip-rule="evenodd" d="M31.7773 11.1265L33.7754 13.7C33.9211 13.8878 34.0004 14.1193 34.0004 14.3571V21.3213C34.0003 21.913 33.5207 22.3927 32.9289 22.3927H29.8201C29.331 24.2211 27.6602 25.5715 25.6793 25.5715C23.6988 25.5715 22.0278 24.2212 21.5385 22.3929H15.1765C14.6872 24.2212 13.0162 25.5715 11.0357 25.5715C9.0552 25.5715 7.38419 24.2211 6.89494 22.3928H4.10753C3.51578 22.3928 3.03613 21.9132 3.03613 21.3214C3.03613 20.7297 3.51572 20.25 4.10753 20.25H6.87652C7.34092 18.3855 9.02953 17 11.0357 17C13.0419 17 14.7305 18.3855 15.1949 20.25H21.5201C21.9845 18.3855 23.6731 17 25.6793 17C27.6854 17 29.374 18.3855 29.8385 20.2499H31.8575V14.7242L30.2972 12.7142H21.9646C21.3729 12.7142 20.8932 12.2346 20.8932 11.6428V4.1428H4.10753C3.51578 4.1428 3.03613 3.66314 3.03613 3.0714C3.03613 2.47965 3.51572 2 4.10753 2H21.9647C22.5564 2 23.0361 2.47959 23.0361 3.0714V4.14258H27.6077C28.0127 4.14258 28.3831 4.37082 28.5652 4.7326L31.7795 11.1254L31.7773 11.1265ZM8.89322 21.3253C8.89323 21.324 8.89323 21.3227 8.89323 21.3214C8.89323 21.3121 8.89311 21.3029 8.89288 21.2936C8.89287 21.291 8.89286 21.2884 8.89286 21.2857C8.89286 20.104 9.85396 19.1429 11.0357 19.1429C12.2172 19.1429 13.1786 20.104 13.1786 21.2857C13.1786 22.4676 12.2175 23.4286 11.0357 23.4286C9.86719 23.4286 8.9144 22.4889 8.89322 21.3253ZM29.1018 10.5714L26.947 6.28544H23.0361V10.5714H29.1018ZM27.8221 21.2946L27.8221 21.2857C27.8221 20.104 26.861 19.1429 25.6793 19.1429C24.4975 19.1429 23.5364 20.104 23.5364 21.2857C23.5364 22.4675 24.4975 23.4286 25.6793 23.4286C26.8482 23.4286 27.8012 22.4883 27.8218 21.3242L27.8218 21.3213L27.8218 21.314L27.8221 21.2946ZM2.8214 14.8213H7.75C8.34175 14.8213 8.8214 15.3009 8.82134 15.8927C8.82134 16.4844 8.34175 16.9641 7.74994 16.9641H2.8214C2.22965 16.9641 1.75 16.4845 1.75 15.8927C1.75 15.3009 2.22959 14.8213 2.8214 14.8213ZM10.2143 10.6069H1.0714C0.479652 10.6069 0 11.0866 0 11.6784C0 12.2702 0.479652 12.7498 1.0714 12.7498H10.2143C10.8061 12.7498 11.2857 12.2701 11.2857 11.6784C11.2857 11.0867 10.8061 10.6069 10.2143 10.6069ZM11.9643 6.39258H2.8214C2.22959 6.39258 1.75 6.87223 1.75 7.46398C1.75 8.05579 2.22965 8.53538 2.8214 8.53538H11.9643C12.5561 8.53538 13.0357 8.05572 13.0357 7.46398C13.0357 6.87223 12.5561 6.39258 11.9643 6.39258Z" fill="#3A3D49"/>
</svg>
