<svg width="35" height="35" viewBox="0 0 35 35" fill="none" xmlns="http://www.w3.org/2000/svg">
<rect width="35" height="35" fill="white"/>
<path fill-rule="evenodd" clip-rule="evenodd" d="M18.065 0.0972396L29.6536 5.24151C30.0622 5.42287 30.3256 5.82791 30.3256 6.27486V15.2067C30.3256 17.695 29.6178 20.2014 28.2787 22.4548C27.9597 22.9916 27.266 23.1682 26.7291 22.8492C26.1923 22.5302 26.0158 21.8364 26.3348 21.2996C27.4663 19.3955 28.0644 17.2886 28.0644 15.2066V7.01L17.6086 2.36864L7.26132 7.00706V15.2067C7.26132 21.2422 12.2191 26.7388 17.6629 26.7388C19.5869 26.7388 21.468 26.11 23.1028 24.9202C23.6076 24.5528 24.3148 24.6642 24.6822 25.169C25.0497 25.6739 24.9383 26.3811 24.4334 26.7485C22.4095 28.2215 20.0683 29 17.6628 29C15.9449 29 14.2646 28.5956 12.6685 27.7978C11.1784 27.0531 9.82975 26.002 8.65983 24.6737C6.33394 22.0328 5 18.5822 5 15.2066V6.27486C5 5.82944 5.26162 5.42548 5.66813 5.24321L17.1438 0.0989388C17.4367 -0.0324108 17.7716 -0.0329772 18.065 0.0972396ZM17.1064 17.418L22.6792 9.63372C23.0426 9.12594 23.7489 9.00903 24.2566 9.37255C24.7643 9.73602 24.8812 10.4423 24.5178 10.95L18.9223 18.7658C18.9101 18.7829 18.8974 18.7996 18.8843 18.8159C18.3763 19.4481 17.6209 19.8416 16.8118 19.8955C16.7478 19.8998 16.6837 19.9019 16.6199 19.9019C15.8771 19.9019 15.1551 19.6155 14.6142 19.1006L14.6041 19.0908L10.9962 15.5701C10.5493 15.1339 10.5406 14.4182 10.9767 13.9713C11.4128 13.5243 12.1286 13.5156 12.5755 13.9517L16.1772 17.4665C16.3548 17.633 16.5563 17.6463 16.6613 17.6393C16.7636 17.6326 16.9542 17.5944 17.1064 17.418Z" fill="#3A3D49"/>
</svg>
